# xmcd
#
# Track frame offsets:
#	150
#	13990
#	29566
#	51156
#	67797
#	83833
#	96291
#	112683
#	122558
#	133223
#	150476
#	168133
#	186146
#	198834
#	211778
#	223347
#
# Disc length: 3241 seconds
#
# Revision: 1
# Processed by: cddbd v1.5.2PL0 Copyright (c) Steve Scherf et al.
# Submitted via: audiograbber 1.83.01
#
DISCID=d60ca710
DTITLE=Jimmie Vaughan - Plays More Blues, Ballads and Favorites
DYEAR=2011
DGENRE=Blues
TTITLE0=I Ain't Never
TTITLE1=No Use Knocking
TTITLE2=Teardrop Blues
TTITLE3=I Hang My Head And Cry
TTITLE4=It's Been A Long Time
TTITLE5=Breaking Up Is Hard To Do
TTITLE6=What Makes You So Tough
TTITLE7=Greenbacks
TTITLE8=I'm In The Mood For You
TTITLE9=I Ain't Gonna Do It No More
TTITLE10=Cried Like A Baby
TTITLE11=Oh Oh Oh 
TTITLE12=I'm A Love You
TTITLE13=The Rains Came
TTITLE14=Bad Bad Whiskey
TTITLE15=Shake A Hand
EXTD=
EXTT0=
EXTT1=
EXTT2=
EXTT3=
EXTT4=
EXTT5=
EXTT6=
EXTT7=
EXTT8=
EXTT9=
EXTT10=
EXTT11=
EXTT12=
EXTT13=
EXTT14=
EXTT15=
PLAYORDER=
